<?xml version="1.0" encoding="UTF-8" standalone="no"?>
<svg
   xmlns:dc="http://purl.org/dc/elements/1.1/"
   xmlns:cc="http://creativecommons.org/ns#"
   xmlns:rdf="http://www.w3.org/1999/02/22-rdf-syntax-ns#"
   xmlns:svg="http://www.w3.org/2000/svg"
   xmlns="http://www.w3.org/2000/svg"
   xmlns:sodipodi="http://sodipodi.sourceforge.net/DTD/sodipodi-0.dtd"
   xmlns:inkscape="http://www.inkscape.org/namespaces/inkscape"
   version="1.1"
   x="0px"
   y="0px"
   viewBox="0 0 283.46 354.325"
   enable-background="new 0 0 283.46 283.46"
   xml:space="preserve"
   id="svg30"
   sodipodi:docname="logo-white.svg"
   inkscape:version="1.0.1 (3bc2e813f5, 2020-09-07)"><metadata
   id="metadata36"><rdf:RDF><cc:Work
       rdf:about=""><dc:format>image/svg+xml</dc:format><dc:type
         rdf:resource="http://purl.org/dc/dcmitype/StillImage" /><dc:title></dc:title></cc:Work></rdf:RDF></metadata><defs
   id="defs34" /><sodipodi:namedview
   pagecolor="#ffffff"
   bordercolor="#666666"
   borderopacity="1"
   objecttolerance="10"
   gridtolerance="10"
   guidetolerance="10"
   inkscape:pageopacity="0"
   inkscape:pageshadow="2"
   inkscape:window-width="1920"
   inkscape:window-height="1017"
   id="namedview32"
   showgrid="false"
   inkscape:zoom="2.3989275"
   inkscape:cx="61.485809"
   inkscape:cy="177.1625"
   inkscape:window-x="-8"
   inkscape:window-y="-8"
   inkscape:window-maximized="1"
   inkscape:current-layer="svg30" />
    <path
   d="M239.713,148.034l-18.5,16.75c-3.481,3.153-8.858,2.884-12.012-0.596c-3.152-3.481-2.886-8.859,0.596-12.011l2.145-1.942  h-19.092c-5.926,0-10.746,4.821-10.746,10.746c0,15.304-12.45,27.754-27.754,27.754h-17.75h-30.75  c-5.925,0-10.746,4.821-10.746,10.746c0,15.304-12.45,27.754-27.754,27.754h-17.75c-4.697,0-8.504-3.807-8.504-8.504  s3.807-8.504,8.504-8.504h17.75c5.925,0,10.746-4.821,10.746-10.746c0-7.47,2.972-14.256,7.789-19.25  c-4.817-4.994-7.789-11.78-7.789-19.25c0-5.925-4.821-10.746-10.746-10.746h-17.75c-4.697,0-8.504-3.807-8.504-8.504  s3.807-8.504,8.504-8.504h17.75c15.304,0,27.754,12.45,27.754,27.754c0,5.925,4.821,10.746,10.746,10.746h30.75h17.75  c5.926,0,10.746-4.821,10.746-10.746c0-7.47,2.972-14.256,7.789-19.25c-4.817-4.994-7.789-11.78-7.789-19.25  c0-5.926-4.82-10.746-10.746-10.746h-17.75h-30.75c-15.304,0-27.754-12.45-27.754-27.754c0-5.926-4.821-10.746-10.746-10.746h-17.75  c-4.697,0-8.504-3.808-8.504-8.504s3.807-8.504,8.504-8.504h17.75c15.304,0,27.754,12.45,27.754,27.754  c0,5.926,4.821,10.746,10.746,10.746h30.75h17.75c15.304,0,27.754,12.45,27.754,27.754c0,5.925,4.82,10.746,10.746,10.746h19.092  l-2.145-1.942c-3.481-3.152-3.748-8.529-0.596-12.012c1.679-1.854,3.988-2.796,6.307-2.796c2.035,0,4.077,0.727,5.705,2.2  l18.5,16.75c1.78,1.612,2.796,3.902,2.796,6.304S241.493,146.422,239.713,148.034z"
   id="path24"
   clip-path="none"
   style="fill:#ffffff;fill-opacity:1" />
    
    
</svg>
